<mxfile host="app.diagrams.net" modified="2021-06-30T06:45:51.854Z" agent="5.0 (Windows NT 10.0; Win64; x64) AppleWebKit/537.36 (KHTML, like Gecko) Chrome/91.0.4472.77 Safari/537.36" etag="YX2NPOdG3XgRhlSkYGQk" version="14.7.7" type="github">
  <diagram id="jUEM2gjwyOWfBbn4Lu3l" name="Page-1">
    <mxGraphModel dx="310" dy="477" grid="1" gridSize="10" guides="1" tooltips="1" connect="1" arrows="1" fold="1" page="1" pageScale="1" pageWidth="850" pageHeight="1100" math="0" shadow="0">
      <root>
        <mxCell id="0" />
        <mxCell id="1" parent="0" />
        <mxCell id="mNImHOIRrdFlKgilQQdy-1" value="" style="shape=partialRectangle;whiteSpace=wrap;html=1;bottom=1;right=1;left=1;top=0;fillColor=none;routingCenterX=-0.5;" vertex="1" parent="1">
          <mxGeometry x="20" y="175" width="90" height="130" as="geometry" />
        </mxCell>
        <mxCell id="mNImHOIRrdFlKgilQQdy-2" value="" style="shape=partialRectangle;whiteSpace=wrap;html=1;bottom=1;right=1;left=1;top=0;fillColor=none;routingCenterX=-0.5;" vertex="1" parent="1">
          <mxGeometry x="135" y="175" width="90" height="130" as="geometry" />
        </mxCell>
        <mxCell id="mNImHOIRrdFlKgilQQdy-3" value="" style="shape=partialRectangle;whiteSpace=wrap;html=1;bottom=1;right=1;left=1;top=0;fillColor=none;routingCenterX=-0.5;" vertex="1" parent="1">
          <mxGeometry x="365" y="350" width="90" height="130" as="geometry" />
        </mxCell>
        <mxCell id="mNImHOIRrdFlKgilQQdy-4" value="" style="shape=partialRectangle;whiteSpace=wrap;html=1;bottom=1;right=1;left=1;top=0;fillColor=none;routingCenterX=-0.5;" vertex="1" parent="1">
          <mxGeometry x="365" y="175" width="90" height="130" as="geometry" />
        </mxCell>
        <mxCell id="mNImHOIRrdFlKgilQQdy-5" value="" style="shape=partialRectangle;whiteSpace=wrap;html=1;bottom=1;right=1;left=1;top=0;fillColor=none;routingCenterX=-0.5;" vertex="1" parent="1">
          <mxGeometry x="250" y="175" width="90" height="130" as="geometry" />
        </mxCell>
        <mxCell id="mNImHOIRrdFlKgilQQdy-6" value="" style="shape=partialRectangle;whiteSpace=wrap;html=1;bottom=1;right=1;left=1;top=0;fillColor=none;routingCenterX=-0.5;" vertex="1" parent="1">
          <mxGeometry x="135" y="350" width="90" height="130" as="geometry" />
        </mxCell>
        <mxCell id="mNImHOIRrdFlKgilQQdy-7" value="" style="shape=partialRectangle;whiteSpace=wrap;html=1;bottom=1;right=1;left=1;top=0;fillColor=none;routingCenterX=-0.5;" vertex="1" parent="1">
          <mxGeometry x="250" y="350" width="90" height="130" as="geometry" />
        </mxCell>
        <mxCell id="mNImHOIRrdFlKgilQQdy-10" value="main()" style="shape=ext;double=1;rounded=0;whiteSpace=wrap;html=1;" vertex="1" parent="1">
          <mxGeometry x="135" y="265" width="90" height="40" as="geometry" />
        </mxCell>
        <mxCell id="mNImHOIRrdFlKgilQQdy-11" value="doStuff()" style="shape=ext;double=1;rounded=0;whiteSpace=wrap;html=1;" vertex="1" parent="1">
          <mxGeometry x="250" y="225" width="90" height="40" as="geometry" />
        </mxCell>
        <mxCell id="mNImHOIRrdFlKgilQQdy-12" value="main()" style="shape=ext;double=1;rounded=0;whiteSpace=wrap;html=1;" vertex="1" parent="1">
          <mxGeometry x="250" y="265" width="90" height="40" as="geometry" />
        </mxCell>
        <mxCell id="mNImHOIRrdFlKgilQQdy-13" value="doMore()" style="shape=ext;double=1;rounded=0;whiteSpace=wrap;html=1;" vertex="1" parent="1">
          <mxGeometry x="365" y="185" width="90" height="40" as="geometry" />
        </mxCell>
        <mxCell id="mNImHOIRrdFlKgilQQdy-14" value="doStyff()" style="shape=ext;double=1;rounded=0;whiteSpace=wrap;html=1;" vertex="1" parent="1">
          <mxGeometry x="365" y="225" width="90" height="40" as="geometry" />
        </mxCell>
        <mxCell id="mNImHOIRrdFlKgilQQdy-15" value="main()" style="shape=ext;double=1;rounded=0;whiteSpace=wrap;html=1;" vertex="1" parent="1">
          <mxGeometry x="365" y="265" width="90" height="40" as="geometry" />
        </mxCell>
        <mxCell id="mNImHOIRrdFlKgilQQdy-16" value="doStuff()" style="shape=ext;double=1;rounded=0;whiteSpace=wrap;html=1;" vertex="1" parent="1">
          <mxGeometry x="365" y="400" width="90" height="40" as="geometry" />
        </mxCell>
        <mxCell id="mNImHOIRrdFlKgilQQdy-17" value="mani()" style="shape=ext;double=1;rounded=0;whiteSpace=wrap;html=1;" vertex="1" parent="1">
          <mxGeometry x="365" y="440" width="90" height="40" as="geometry" />
        </mxCell>
        <mxCell id="mNImHOIRrdFlKgilQQdy-18" value="main()" style="shape=ext;double=1;rounded=0;whiteSpace=wrap;html=1;" vertex="1" parent="1">
          <mxGeometry x="250" y="440" width="90" height="40" as="geometry" />
        </mxCell>
        <mxCell id="mNImHOIRrdFlKgilQQdy-19" value="" style="shape=singleArrow;whiteSpace=wrap;html=1;" vertex="1" parent="1">
          <mxGeometry x="110" y="230" width="25" height="20" as="geometry" />
        </mxCell>
        <mxCell id="mNImHOIRrdFlKgilQQdy-29" value="" style="shape=singleArrow;whiteSpace=wrap;html=1;" vertex="1" parent="1">
          <mxGeometry x="340" y="230" width="25" height="20" as="geometry" />
        </mxCell>
        <mxCell id="mNImHOIRrdFlKgilQQdy-30" value="" style="shape=singleArrow;whiteSpace=wrap;html=1;" vertex="1" parent="1">
          <mxGeometry x="225" y="230" width="25" height="20" as="geometry" />
        </mxCell>
        <mxCell id="mNImHOIRrdFlKgilQQdy-42" value="" style="edgeStyle=segmentEdgeStyle;endArrow=classic;html=1;exitX=1;exitY=0.5;exitDx=0;exitDy=0;entryX=1;entryY=0;entryDx=0;entryDy=0;" edge="1" parent="1" source="mNImHOIRrdFlKgilQQdy-4" target="mNImHOIRrdFlKgilQQdy-17">
          <mxGeometry width="50" height="50" relative="1" as="geometry">
            <mxPoint x="590" y="350" as="sourcePoint" />
            <mxPoint x="640" y="300" as="targetPoint" />
            <Array as="points">
              <mxPoint x="530" y="240" />
              <mxPoint x="530" y="440" />
            </Array>
          </mxGeometry>
        </mxCell>
        <mxCell id="mNImHOIRrdFlKgilQQdy-43" value="" style="html=1;shadow=0;dashed=0;align=center;verticalAlign=middle;shape=mxgraph.arrows2.arrow;dy=0.7;dx=9;flipH=1;notch=0;" vertex="1" parent="1">
          <mxGeometry x="342.5" y="390" width="22.5" height="20" as="geometry" />
        </mxCell>
        <mxCell id="mNImHOIRrdFlKgilQQdy-45" value="" style="html=1;shadow=0;dashed=0;align=center;verticalAlign=middle;shape=mxgraph.arrows2.arrow;dy=0.7;dx=9;flipH=1;notch=0;" vertex="1" parent="1">
          <mxGeometry x="225" y="390" width="25" height="20" as="geometry" />
        </mxCell>
      </root>
    </mxGraphModel>
  </diagram>
</mxfile>
